<svg id="レイヤー_1" data-name="レイヤー 1" xmlns="http://www.w3.org/2000/svg" viewBox="0 0 192.02 76.88"><defs><style>.cls-1{fill:#fff;}</style></defs><title>logo</title><path class="cls-1" d="M51.95,34.31c-.1-5.55-.93-6.08-7.34-5.85H23.5c-6.64,0-7.33,0-7.22,6.34s.11,6.14.23,13.08.13,7.53,7.46,7.53h21.7c6.64,0,6.65.4,6.51-7.73C52.18,47.69,52,39.86,51.95,34.31ZM38.24,49.64H30.08c-1.29,0-1.22,0-1.22-1.95s-.22-11.86-.22-11.86c.06-1.42-.24-1.35,2-1.35h7.46c1.65,0,1.65,0,1.67,1.29L40,48.25C40.06,49.67,40.19,49.64,38.24,49.64Z" transform="translate(-3.98 -2.15)"/><polygon class="cls-1" points="79.96 53.27 69.66 53.27 69.32 33.94 56.53 33.94 56.44 28.39 69.22 28.39 69.17 25.22 79.47 25.22 79.53 28.39 91.42 28.39 91.28 20.47 93.76 20.47 93.91 29.39 92.92 29.39 93 33.84 79.62 33.84 79.96 53.27"/><polygon class="cls-1" points="98.57 30.19 96.19 30.19 96.04 21.47 98.42 21.47 98.57 30.19"/><polygon class="cls-1" points="57.48 37.18 56.87 53.27 66.35 53.27 66.6 37.18 57.48 37.18"/><polygon class="cls-1" points="82.55 37.18 91.64 37.18 93.37 53.27 83.63 53.27 82.55 37.18"/><polygon class="cls-1" points="114.67 53.38 101.97 53.38 121.03 33.57 121.03 32.86 103.96 32.86 103.96 27.2 135.14 27.2 137.26 29.06 137.26 30.12 128.07 39.85 128.07 40.69 139.3 53.38 126.03 53.38 121.03 47.72 120.28 47.68 114.67 53.38"/><path class="cls-1" d="M181.75,31.52H162.19l.58-2.87-12.65-.25L146,49.08h12.65L161,37.14h10.13l-1.24,6.39h-7.83L161,49.08h8l-1.28,6.46h12.74L184,37.89Z" transform="translate(-3.98 -2.15)"/><path class="cls-1" d="M4,13.85V4.61h9.08v9.14H11.62v-.85H5.42v1Zm7.64-2.19V5.84H5.42v5.82Z" transform="translate(-3.98 -2.15)"/><path class="cls-1" d="M19.61,13.48a6.71,6.71,0,0,0-1.12-.91,10.82,10.82,0,0,0,1.18-1.34l.35-.56a6.94,6.94,0,0,0,.35-.61l.29-.53a12.7,12.7,0,0,0,.56-1.18L22.44,9A16.89,16.89,0,0,1,19.61,13.48Zm4-7.43V3.17h1.39V6.05h5.18V7.23H24.95V15H23.56V7.23H18.64V6.05Zm6.79,6.25a7,7,0,0,0-1.18,1q-1.23-1.44-1.71-2.14A18.88,18.88,0,0,1,26,8.88l1.18-.69a23.8,23.8,0,0,0,1.66,2.56A8.6,8.6,0,0,0,30.35,12.3ZM29.17,4.77l-.64.64L27.09,4.07l.69-.69a6.2,6.2,0,0,1,.48.43l.45.45A6.27,6.27,0,0,1,29.17,4.77Zm-.85-1.92L29,2.15q.43.32.88.72t.67.62l-.75.69A13.32,13.32,0,0,0,28.32,2.85Z" transform="translate(-3.98 -2.15)"/><path class="cls-1" d="M35.77,7.71l1-.53q.27.54.61,1.15t.72,1.36L37,10.22A18.43,18.43,0,0,0,35.77,7.71Zm2,7.64a3,3,0,0,0-.64-1.07,11.83,11.83,0,0,0,3-1.39,7,7,0,0,0,1.87-2,17.74,17.74,0,0,0,1.5-4.06l1.23.43a24.09,24.09,0,0,1-1.5,3.85,8.12,8.12,0,0,1-1.82,2.24A10.06,10.06,0,0,1,37.74,15.35Zm.75-8.44,1.07-.48Q40.31,8,40.68,9l-1,.48A22.52,22.52,0,0,0,38.49,6.91Z" transform="translate(-3.98 -2.15)"/><path class="cls-1" d="M53.58,14.92V3.06h1.5V6.85q2.4.86,3.1,1.18T60.9,9.42l-.8,1.34q-1.23-.8-2.56-1.5a19.94,19.94,0,0,0-2.46-1v6.63Z" transform="translate(-3.98 -2.15)"/><path class="cls-1" d="M65.79,5.2l1,.16Q66.7,6.64,66.64,7a20.35,20.35,0,0,1-.48,2l-1-.32A19.23,19.23,0,0,0,65.79,5.2Zm1.18,10V2.69h1.23V15.19ZM68.35,5l1-.32a3.28,3.28,0,0,1,.37.85q.16.54.37,1.12L69,7Q69,6.85,68.35,5Zm4.44-1.12V2.74h1.34V3.91h3.42v.91H74.12v.69H76.8v.91H74.12v.75H78v.91H69.26V7.17h3.53V6.43H70.22V5.52h2.56V4.82h-3.1V3.91ZM70.28,15.19V8.72h6.31V14a1.26,1.26,0,0,1-.27.91,3.56,3.56,0,0,1-2,.48A9.18,9.18,0,0,0,74,14.12h1.12c.07,0,.11,0,.11-.05a.22.22,0,0,0,.05-.16v-1H71.51v2.24Zm5-4.76V9.58H71.51v.85Zm0,1.66v-.85H71.51v.85Z" transform="translate(-3.98 -2.15)"/><path class="cls-1" d="M83.66,4.07V2.58H85v1.5h2V5.14H85V6.32h2.3V7.39h-.75l-.69,1.87h1.44v1.07H84.94v1.28H87v1H84.94v2.51H83.66V12.62H81.41v-1h2.24V10.33H81.09V9.26h1.55A12.2,12.2,0,0,0,82,7.71l.64-.32H81.09V6.32h2.56V5.14H81.52V4.07Zm.11,4.76-.86.43h1.87l.53-1.87H83.07A11.27,11.27,0,0,1,83.77,8.83Zm7.91-4.6H88.74V8h3.63L92.48,8l.69.64q-.48,1.92-.69,2.51a12.18,12.18,0,0,1-.7,1.39q.48.48.86.8a10.79,10.79,0,0,0,1.07.59,4.22,4.22,0,0,0-.53.59,1.63,1.63,0,0,0-.27.64A12.18,12.18,0,0,1,91,13.59a9.5,9.5,0,0,1-1.6,1.55l-.59-1.23a5.14,5.14,0,0,0,1.5-1.28,11.47,11.47,0,0,1-.8-1.92A9.68,9.68,0,0,1,89.16,9h-.43v6.15H87.61v-12H93L92.9,6.53a1.08,1.08,0,0,1-.32.59,3.7,3.7,0,0,1-1.76.37,1,1,0,0,0,0-.64l-.32-.59h.8q.27,0,.32-.05s.05-.09.05-.27A13.9,13.9,0,0,0,91.67,4.24ZM91,11.5A7,7,0,0,0,91.83,9h-1.5A5.78,5.78,0,0,0,91,11.5Z" transform="translate(-3.98 -2.15)"/><path class="cls-1" d="M108.26,13.75,106.12,5l-2.3,8.71h-1.34L100.14,3.38h1.28l1.82,8.55,2.24-8.55h1.34L109,11.93l1.92-8.55h1.18l-2.4,10.37Z" transform="translate(-3.98 -2.15)"/><path class="cls-1" d="M116.94,12.62h4.86v1.12h-6.25V3.38h5.88V4.5h-4.49V7.82h3.9v1h-3.9Z" transform="translate(-3.98 -2.15)"/><path class="cls-1" d="M130.16,8.3a2.6,2.6,0,0,1,1.76,1,2.65,2.65,0,0,1,.53,1.66,2.83,2.83,0,0,1-.48,1.55,2.49,2.49,0,0,1-1.23,1,5.56,5.56,0,0,1-2.19.32h-3.1V3.38h2.78a11.86,11.86,0,0,1,2.35.16,2.06,2.06,0,0,1,1.07.75A2.28,2.28,0,0,1,132,5.62,3,3,0,0,1,130.16,8.3Zm-1.6-3.85h-1.71V7.87h1.28a3,3,0,0,0,1.92-.59,1.88,1.88,0,0,0,.64-1.44,1.22,1.22,0,0,0-.48-1A2.49,2.49,0,0,0,128.56,4.45Zm-.75,4.49h-1v3.79h1.87a2.71,2.71,0,0,0,1.82-.48,1.4,1.4,0,0,0,.53-1.23,1.75,1.75,0,0,0-.8-1.55A4.66,4.66,0,0,0,127.81,8.94Z" transform="translate(-3.98 -2.15)"/><path class="cls-1" d="M137.37,4.77h10.1l.27-.05.8,1.07a12.21,12.21,0,0,0-.86.91Q146.45,8,145.86,8.56q-.27.27-.78.72l-1.58,1.42q.69.7,1.92,2.19l-1.12,1q-1.18-1.5-2.3-2.67-.8-.8-2.51-2.24l.91-1,.77.64q.4.32,1.42,1.23.8-.69,1.82-1.71L146.34,6h-9Z" transform="translate(-3.98 -2.15)"/><path class="cls-1" d="M157,7.39h-3.26V6.16h3.37V3.27h1.5l-.05,2.89h4.33q-.11,3.42-.27,5.08a9.44,9.44,0,0,1-.37,2.3,1.89,1.89,0,0,1-.37.43,6.9,6.9,0,0,1-2.56.43,10.76,10.76,0,0,0-.37-1.39h1.55c.28,0,.46-.2.53-.59a29.32,29.32,0,0,0,.43-5h-3a12.18,12.18,0,0,1-.86,3.31,9,9,0,0,1-1.44,2.14,9.27,9.27,0,0,1-2.56,2,4,4,0,0,0-1-1.12A11.1,11.1,0,0,0,155,12a5.5,5.5,0,0,0,1.28-1.87A11.26,11.26,0,0,0,157,7.39Zm4.22-3,.59-.7a5.06,5.06,0,0,1,.59.48q.48.43,1,.91l-.69.64-.53-.51Zm3.37-.59-.69.7q-.37-.37-.86-.8a4.09,4.09,0,0,0-.69-.53l.64-.7Q163.15,2.58,164.59,3.81Z" transform="translate(-3.98 -2.15)"/><path class="cls-1" d="M172.63,8.24,172,9.42a28.36,28.36,0,0,0-2.67-1.23L169.85,7a8.59,8.59,0,0,1,1.07.43S171.52,7.71,172.63,8.24Zm6.79-1.6a3,3,0,0,0,.91,1.12,25.16,25.16,0,0,1-4.12,4,27.52,27.52,0,0,1-5.61,2.94L170,13.21a18.56,18.56,0,0,0,5.4-2.62A18.35,18.35,0,0,0,179.41,6.64ZM174.28,5l-.75,1.12a25,25,0,0,0-2.78-1.55l.64-1.07Q171.66,3.65,174.28,5Zm4.65.43-.69.7q-.75-.75-1.44-1.39l.59-.64.83.7Q178.66,5.2,178.93,5.46Zm.53-.59L178,3.54l.64-.64c.29.21.52.4.69.56s.34.29.48.4a4.21,4.21,0,0,1,.43.37Z" transform="translate(-3.98 -2.15)"/><path class="cls-1" d="M195,6.05a2.75,2.75,0,0,0,.43.53,2.19,2.19,0,0,0,.59.48,29.11,29.11,0,0,1-2.73,3,25.07,25.07,0,0,1-3,2.35,37.45,37.45,0,0,1-4.17,2.19l-.75-1.5A15.67,15.67,0,0,0,188,12a23.07,23.07,0,0,0,2.62-1.55,19.86,19.86,0,0,0,2.24-1.92A20.43,20.43,0,0,0,195,6.05Zm-5.56.05-1,1.12q-1.18-1.07-1.6-1.39a3.21,3.21,0,0,0-.37-.29l-.59-.4-.53-.37.85-1.07a10.65,10.65,0,0,1,1,.64l.61.43A20.29,20.29,0,0,1,189.43,6.11Z" transform="translate(-3.98 -2.15)"/><path class="cls-1" d="M40.46,75.87a6.33,6.33,0,0,1-.67-.09,2.13,2.13,0,0,1-.63-.24.76.76,0,0,1-.25.1l-.25,0a.75.75,0,0,1-.52-.19.62.62,0,0,1-.21-.46,1.06,1.06,0,0,1,.18-.49v-8.1a.9.9,0,0,1,.28-.48.75.75,0,0,1,.47-.16.8.8,0,0,1,.48.15.83.83,0,0,1,.31.45v3.47a3.66,3.66,0,0,1,.54-.33,2.67,2.67,0,0,1,.68-.28,4.82,4.82,0,0,1,.76-.14,2.06,2.06,0,0,1,.83.1,3.7,3.7,0,0,1,.72.34,1.82,1.82,0,0,1,.55.5,2.85,2.85,0,0,1,.36.67,3.77,3.77,0,0,1,.19.76,6.22,6.22,0,0,1,.06.79,5.35,5.35,0,0,1-.11,1.11,3.06,3.06,0,0,1-.37,1,2.37,2.37,0,0,1-.64.73,3.6,3.6,0,0,1-.87.49,4.57,4.57,0,0,1-1,.27A4.28,4.28,0,0,1,40.46,75.87ZM39.68,72v2.18a2.33,2.33,0,0,0,1.11.3,2.52,2.52,0,0,0,1-.2,1.64,1.64,0,0,0,.79-.71,1.73,1.73,0,0,0,.24-.65,5.16,5.16,0,0,0,0-.65,4.73,4.73,0,0,0,0-.62,2.27,2.27,0,0,0-.17-.57,1.23,1.23,0,0,0-.31-.43.85.85,0,0,0-.5-.18,1.51,1.51,0,0,0-.65.1,2,2,0,0,0-.52.33,4.34,4.34,0,0,0-.49.5C40,71.59,39.84,71.79,39.68,72Z" transform="translate(-3.98 -2.15)"/><path class="cls-1" d="M50.87,69.05a.77.77,0,0,1,.73-.44.71.71,0,0,1,.53.22.86.86,0,0,1,.21.61,17.33,17.33,0,0,1-.63,1.93c-.25.64-.52,1.26-.82,1.88s-.61,1.22-.95,1.82-.66,1.19-1,1.78l-.5.87c-.17.28-.33.58-.5.88a1,1,0,0,1-.37.32.86.86,0,0,1-.37.09.76.76,0,0,1-.51-.17.65.65,0,0,1-.21-.54v-.1a.46.46,0,0,1,0-.12c.18-.34.37-.67.56-1s.39-.65.56-1l1-1.72a10.58,10.58,0,0,1-1.12-1,8.12,8.12,0,0,1-.88-1.1A7.65,7.65,0,0,1,45.92,71a10.88,10.88,0,0,1-.51-1.46c0-.6.25-.9.74-.9a.79.79,0,0,1,.78.6,6.76,6.76,0,0,0,.92,2.15,8.43,8.43,0,0,0,1.45,1.66c.33-.65.63-1.3.88-1.93a18.08,18.08,0,0,0,.68-2.09Z" transform="translate(-3.98 -2.15)"/><path class="cls-1" d="M59.31,70.37a1.32,1.32,0,0,1-.42-.34.61.61,0,0,1-.12-.36.59.59,0,0,1,.22-.46.8.8,0,0,1,.56-.19,1.42,1.42,0,0,1,.54.13,1.84,1.84,0,0,1,.51.3,5,5,0,0,1,1-.63,2.05,2.05,0,0,1,1.53-.16,2.73,2.73,0,0,1,.63.25,2.13,2.13,0,0,1,.55.43.88.88,0,0,1,.23.61.59.59,0,0,1-.21.47.76.76,0,0,1-.51.18.66.66,0,0,1-.36-.09,2.4,2.4,0,0,1-.28-.22,1.9,1.9,0,0,0-.26-.21.5.5,0,0,0-.27-.1.93.93,0,0,0-.41.13,4.61,4.61,0,0,0-.47.3,4.85,4.85,0,0,0-.46.39l-.39.37v4.14a.75.75,0,0,1-.26.58.83.83,0,0,1-.51.19.77.77,0,0,1-.5-.18.83.83,0,0,1-.27-.55v-5Z" transform="translate(-3.98 -2.15)"/><path class="cls-1" d="M68.45,68.89a2.37,2.37,0,0,1,1.18.28,2.84,2.84,0,0,1,.87.75A3.44,3.44,0,0,1,71,71a4.22,4.22,0,0,1,.18,1.21,4.54,4.54,0,0,1,0,.5c0,.15-.05.31-.08.47a4.87,4.87,0,0,1-.51,1.21,4.52,4.52,0,0,1-.8,1,3.61,3.61,0,0,1-1,.66,3,3,0,0,1-1.17.24A2.43,2.43,0,0,1,66.42,76a2.9,2.9,0,0,1-.89-.73,3.37,3.37,0,0,1-.56-1,3.33,3.33,0,0,1-.2-1.13,4.19,4.19,0,0,1,.3-1.54,4.67,4.67,0,0,1,.79-1.34,4,4,0,0,1,1.17-1A3,3,0,0,1,68.45,68.89Zm-2,3.4a3.3,3.3,0,0,0-.09.81,2.69,2.69,0,0,0,.13.83,1.51,1.51,0,0,0,.42.66,1.1,1.1,0,0,0,.78.27,1.38,1.38,0,0,0,.84-.28,2.55,2.55,0,0,0,.63-.68,3.45,3.45,0,0,0,.41-.87,3.12,3.12,0,0,0,.14-.85,3.15,3.15,0,0,0-.08-.69,2.06,2.06,0,0,0-.25-.61,1.51,1.51,0,0,0-.4-.44.91.91,0,0,0-.54-.17,1.38,1.38,0,0,0-.71.2,2.62,2.62,0,0,0-.59.49,2.74,2.74,0,0,0-.43.65A3.65,3.65,0,0,0,66.43,72.29Z" transform="translate(-3.98 -2.15)"/><path class="cls-1" d="M74.78,75.87a6.33,6.33,0,0,1-.67-.09,2.13,2.13,0,0,1-.63-.24.76.76,0,0,1-.25.1l-.25,0a.75.75,0,0,1-.52-.19.62.62,0,0,1-.21-.46,1.06,1.06,0,0,1,.18-.49v-8.1a.9.9,0,0,1,.28-.48.75.75,0,0,1,.47-.16.8.8,0,0,1,.48.15.83.83,0,0,1,.31.45v3.47a3.66,3.66,0,0,1,.54-.33,2.67,2.67,0,0,1,.68-.28A4.82,4.82,0,0,1,76,69.1a2.06,2.06,0,0,1,.83.1,3.7,3.7,0,0,1,.72.34,1.82,1.82,0,0,1,.55.5,2.85,2.85,0,0,1,.36.67,3.78,3.78,0,0,1,.19.76,6.22,6.22,0,0,1,.06.79,5.35,5.35,0,0,1-.11,1.11,3.06,3.06,0,0,1-.37,1,2.37,2.37,0,0,1-.64.73,3.6,3.6,0,0,1-.87.49,4.57,4.57,0,0,1-1,.27A4.28,4.28,0,0,1,74.78,75.87ZM74,72v2.18a2.33,2.33,0,0,0,1.11.3,2.52,2.52,0,0,0,1-.2,1.64,1.64,0,0,0,.79-.71,1.73,1.73,0,0,0,.24-.65,5.18,5.18,0,0,0,0-.65,4.74,4.74,0,0,0,0-.62,2.27,2.27,0,0,0-.17-.57,1.23,1.23,0,0,0-.31-.43.85.85,0,0,0-.5-.18,1.51,1.51,0,0,0-.65.1,2,2,0,0,0-.52.33,4.33,4.33,0,0,0-.49.5C74.32,71.59,74.16,71.79,74,72Z" transform="translate(-3.98 -2.15)"/><path class="cls-1" d="M83.4,68.89a2.37,2.37,0,0,1,1.18.28,2.85,2.85,0,0,1,.87.75A3.44,3.44,0,0,1,86,71a4.22,4.22,0,0,1,.18,1.21,4.54,4.54,0,0,1,0,.5c0,.15-.05.31-.08.47a4.87,4.87,0,0,1-.51,1.21,4.52,4.52,0,0,1-.8,1,3.61,3.61,0,0,1-1,.66,3,3,0,0,1-1.17.24A2.43,2.43,0,0,1,81.37,76a2.9,2.9,0,0,1-.89-.73,3.37,3.37,0,0,1-.56-1,3.33,3.33,0,0,1-.2-1.13,4.19,4.19,0,0,1,.3-1.54,4.67,4.67,0,0,1,.79-1.34,4,4,0,0,1,1.17-1A3,3,0,0,1,83.4,68.89Zm-2,3.4a3.3,3.3,0,0,0-.09.81,2.69,2.69,0,0,0,.13.83,1.51,1.51,0,0,0,.42.66,1.1,1.1,0,0,0,.78.27,1.38,1.38,0,0,0,.84-.28,2.55,2.55,0,0,0,.63-.68,3.45,3.45,0,0,0,.41-.87,3.12,3.12,0,0,0,.14-.85,3.16,3.16,0,0,0-.08-.69,2.06,2.06,0,0,0-.25-.61,1.51,1.51,0,0,0-.4-.44.91.91,0,0,0-.54-.17,1.38,1.38,0,0,0-.71.2,2.62,2.62,0,0,0-.59.49,2.74,2.74,0,0,0-.43.65A3.65,3.65,0,0,0,81.38,72.29Z" transform="translate(-3.98 -2.15)"/><path class="cls-1" d="M88.15,70.32a1.12,1.12,0,0,1-.59-.25.6.6,0,0,1-.2-.44.68.68,0,0,1,.21-.47.86.86,0,0,1,.64-.22h.73V66.51a.85.85,0,0,1,.29-.5.76.76,0,0,1,.48-.17.82.82,0,0,1,.47.15.76.76,0,0,1,.3.47v2.46h1.39a1,1,0,0,1,.51.28.62.62,0,0,1,.17.41c0,.33-.25.57-.73.69H90.49v2.9c0,.33,0,.65,0,1s0,.65,0,1a.68.68,0,0,1-.25.58.87.87,0,0,1-.52.19.81.81,0,0,1-.5-.17.75.75,0,0,1-.27-.54c0-.4,0-.81,0-1.24s0-.85,0-1.27V70.32Z" transform="translate(-3.98 -2.15)"/><path class="cls-1" d="M98.7,74.61a.72.72,0,0,1,0-.76.7.7,0,0,1,.62-.31,1.1,1.1,0,0,1,.59.2,3.2,3.2,0,0,0,.79.74,1.29,1.29,0,0,0,1,.21,1.09,1.09,0,0,0,.42-.18.82.82,0,0,0,.27-.31.85.85,0,0,0,.09-.38.7.7,0,0,0-.11-.38,1.42,1.42,0,0,0-.31-.35,1.27,1.27,0,0,0-.35-.19l-.35-.09-.31-.08-.47-.13a3.2,3.2,0,0,1-.46-.18,2.21,2.21,0,0,1-.42-.28,2.38,2.38,0,0,1-.4-.42,1.84,1.84,0,0,1-.27-.51,1.64,1.64,0,0,1-.09-.51A2,2,0,0,1,99,70a2.63,2.63,0,0,1,.33-.64,2.36,2.36,0,0,1,.51-.51,1.73,1.73,0,0,1,.63-.29,3.22,3.22,0,0,1,1.38,0,4,4,0,0,1,1.29.44,1.22,1.22,0,0,1,.33.33.64.64,0,0,1,.11.33.6.6,0,0,1-.1.34.86.86,0,0,1-.27.25.74.74,0,0,1-.37.09,1,1,0,0,1-.45-.13,2.94,2.94,0,0,0-.53-.18,2.1,2.1,0,0,0-.67-.06.91.91,0,0,0-.55.21.69.69,0,0,0-.17.63,1,1,0,0,0,.23.29,1.31,1.31,0,0,0,.3.2,2.18,2.18,0,0,0,.35.13l.36.1a7.23,7.23,0,0,1,.9.32,2.75,2.75,0,0,1,.71.45,1.77,1.77,0,0,1,.46.65,2.25,2.25,0,0,1,.17.92,1.89,1.89,0,0,1-.19.83,2.62,2.62,0,0,1-.5.72,2.45,2.45,0,0,1-.7.51,1.77,1.77,0,0,1-.79.19,4,4,0,0,1-1.72-.39,3.43,3.43,0,0,1-1.34-1.09Z" transform="translate(-3.98 -2.15)"/><path class="cls-1" d="M106.31,70.32a1.12,1.12,0,0,1-.59-.25.6.6,0,0,1-.2-.44.68.68,0,0,1,.21-.47.86.86,0,0,1,.64-.22h.73V66.51a.85.85,0,0,1,.29-.5.76.76,0,0,1,.48-.17.82.82,0,0,1,.47.15.76.76,0,0,1,.3.47v2.46H110a1,1,0,0,1,.51.28.62.62,0,0,1,.17.41c0,.33-.25.57-.73.69h-1.34v2.9c0,.33,0,.65,0,1s0,.65,0,1a.68.68,0,0,1-.25.58.87.87,0,0,1-.52.19.81.81,0,0,1-.5-.17.75.75,0,0,1-.27-.54c0-.4,0-.81,0-1.24s0-.85,0-1.27V70.32Z" transform="translate(-3.98 -2.15)"/><path class="cls-1" d="M118.17,75a.74.74,0,0,1,0,.45.65.65,0,0,1-.22.35.75.75,0,0,1-.42.16,1,1,0,0,1-.54-.12l-.25-.26a1.88,1.88,0,0,1-.2-.26,3,3,0,0,1-1.07.54,4.58,4.58,0,0,1-1.08.12,4.12,4.12,0,0,1-.83-.09,2.46,2.46,0,0,1-1.66-1.37,3.07,3.07,0,0,1-.25-1.23,4.05,4.05,0,0,1,.2-1.26,4.54,4.54,0,0,1,.55-1.11,5.55,5.55,0,0,1,.8-.94,6,6,0,0,1,1-.76l.31-.14L115,69a4,4,0,0,1,.52-.11,3.36,3.36,0,0,1,.52,0,3,3,0,0,1,.88.12.86.86,0,0,1,.56.58v.79c0,.21,0,.39,0,.53s0,.26,0,.35v.27c0,.37,0,.75,0,1.14s.06.78.11,1.16a1.71,1.71,0,0,0,.15.41,3.94,3.94,0,0,0,.25.42h0l.18.28C118.17,75,118.19,75,118.17,75ZM116,73.91a6.89,6.89,0,0,1-.16-1.14c0-.39,0-.79,0-1.18s0-.52,0-.74,0-.44,0-.65a2.11,2.11,0,0,0-.54.14l-.39.16a2.55,2.55,0,0,0-.77.54,3.22,3.22,0,0,0-.56.77,3.43,3.43,0,0,0-.32.89,2.26,2.26,0,0,0,0,.91,1,1,0,0,0,.25.57,1.26,1.26,0,0,0,.46.35,1.41,1.41,0,0,0,.57.12,1.82,1.82,0,0,0,.59-.09A7,7,0,0,0,116,73.91Z" transform="translate(-3.98 -2.15)"/><path class="cls-1" d="M119.83,70.37a1.32,1.32,0,0,1-.42-.34.61.61,0,0,1-.12-.36.59.59,0,0,1,.22-.46.8.8,0,0,1,.56-.19,1.42,1.42,0,0,1,.54.13,1.84,1.84,0,0,1,.51.3,5,5,0,0,1,1-.63,2.05,2.05,0,0,1,1.53-.16,2.73,2.73,0,0,1,.63.25,2.13,2.13,0,0,1,.55.43.88.88,0,0,1,.23.61.59.59,0,0,1-.21.47.77.77,0,0,1-.51.18.66.66,0,0,1-.36-.09,2.41,2.41,0,0,1-.28-.22,1.9,1.9,0,0,0-.26-.21.5.5,0,0,0-.27-.1.93.93,0,0,0-.41.13,4.61,4.61,0,0,0-.47.3,4.85,4.85,0,0,0-.46.39l-.39.37v4.14a.75.75,0,0,1-.26.58.83.83,0,0,1-.51.19.77.77,0,0,1-.5-.18.83.83,0,0,1-.27-.55v-5Z" transform="translate(-3.98 -2.15)"/><path class="cls-1" d="M126.75,70.32a1.12,1.12,0,0,1-.59-.25.6.6,0,0,1-.2-.44.68.68,0,0,1,.21-.47.86.86,0,0,1,.64-.22h.73V66.51a.85.85,0,0,1,.29-.5.76.76,0,0,1,.48-.17.82.82,0,0,1,.47.15.76.76,0,0,1,.3.47v2.46h1.39a1,1,0,0,1,.51.28.62.62,0,0,1,.17.41c0,.33-.25.57-.73.69h-1.34v2.9c0,.33,0,.65,0,1s0,.65,0,1a.68.68,0,0,1-.25.58.87.87,0,0,1-.52.19.81.81,0,0,1-.5-.17.75.75,0,0,1-.27-.54c0-.4,0-.81,0-1.24s0-.85,0-1.27V70.32Z" transform="translate(-3.98 -2.15)"/><path class="cls-1" d="M137.72,66.78a.85.85,0,0,1,.26-.62.86.86,0,0,1,.63-.26.89.89,0,0,1,.64.26.85.85,0,0,1,.26.62.82.82,0,0,1-.26.62.9.9,0,0,1-.64.25.87.87,0,0,1-.63-.25A.82.82,0,0,1,137.72,66.78Zm1.69,8.45a.75.75,0,0,1-.25.58.78.78,0,0,1-.51.19.8.8,0,0,1-.5-.17.77.77,0,0,1-.26-.54l-.05-6a.9.9,0,0,1,.28-.5.73.73,0,0,1,.49-.17.83.83,0,0,1,.47.15.77.77,0,0,1,.3.47Z" transform="translate(-3.98 -2.15)"/><path class="cls-1" d="M147.11,75.26a.73.73,0,0,1-.26.59.84.84,0,0,1-.51.19.82.82,0,0,1-.51-.18.77.77,0,0,1-.28-.54v-.39c0-.14,0-.33,0-.57s0-.54,0-.92V72c0-.14,0-.31,0-.52a3.34,3.34,0,0,0,0-.63,1.44,1.44,0,0,0-.18-.53.46.46,0,0,0-.42-.22,1.81,1.81,0,0,0-.93.27,2.69,2.69,0,0,0-.81.79,1.82,1.82,0,0,0-.2.36,1.63,1.63,0,0,0-.11.48v1.59c0,.52,0,1,0,1.59a.74.74,0,0,1-.25.59.8.8,0,0,1-.51.19.78.78,0,0,1-.49-.18.75.75,0,0,1-.27-.54V72.38c0-.46,0-.93,0-1.4s0-1,0-1.46a.83.83,0,0,1,.29-.51.77.77,0,0,1,.47-.16.86.86,0,0,1,.44.13.69.69,0,0,1,.3.4,4,4,0,0,1,1-.51,3.21,3.21,0,0,1,1.08-.18A2.44,2.44,0,0,1,146,69a2.12,2.12,0,0,1,.88.87,1.68,1.68,0,0,1,.21.6,4.11,4.11,0,0,1,.05.65,6.41,6.41,0,0,1,0,.66,5.92,5.92,0,0,0,0,.61Z" transform="translate(-3.98 -2.15)"/><path class="cls-1" d="M152.64,74a.7.7,0,0,1,.28-.18,1.08,1.08,0,0,1,.31,0,.71.71,0,0,1,.52.2.62.62,0,0,1,.21.47.88.88,0,0,1-.23.55,2.75,2.75,0,0,1-1,.73,3.2,3.2,0,0,1-1.22.24,3.15,3.15,0,0,1-.82-.11,2.7,2.7,0,0,1-.75-.34,2.93,2.93,0,0,1-.64-.56,2.52,2.52,0,0,1-.44-.77v0a3.74,3.74,0,0,1-.31-1.83,5,5,0,0,1,.29-1.33,4.56,4.56,0,0,1,.66-1.22,3.49,3.49,0,0,1,1-.9,2.54,2.54,0,0,1,1.31-.35l.42,0a2,2,0,0,1,.42.1,5.06,5.06,0,0,1,.8.36,3.41,3.41,0,0,1,.72.56.93.93,0,0,1,.16.45.66.66,0,0,1-.09.36.6.6,0,0,1-.26.24.85.85,0,0,1-.4.07,1.1,1.1,0,0,1-.48-.13,2.35,2.35,0,0,0-.64-.5,1.35,1.35,0,0,0-.59-.15,1.23,1.23,0,0,0-.71.23,2,2,0,0,0-.57.61,3.6,3.6,0,0,0-.38.85,3.32,3.32,0,0,0-.14,1,3.46,3.46,0,0,0,0,.54,1.7,1.7,0,0,0,.15.51,1.56,1.56,0,0,0,.54.69,1.22,1.22,0,0,0,.69.22,1.34,1.34,0,0,0,.57-.14,1.85,1.85,0,0,0,.57-.42Z" transform="translate(-3.98 -2.15)"/><path class="cls-1" d="M158.06,74.91a.86.86,0,0,1-.31.66,1.09,1.09,0,0,1-.74.28,1.16,1.16,0,0,1-.79-.28.86.86,0,0,1-.31-.66.88.88,0,0,1,.31-.66A1.14,1.14,0,0,1,157,74a1.08,1.08,0,0,1,.74.28A.88.88,0,0,1,158.06,74.91Z" transform="translate(-3.98 -2.15)"/></svg>